<svg width="32" height="32" viewBox="0 0 32 32" fill="none" xmlns="http://www.w3.org/2000/svg">
<path d="M13.6867 11.4087V12.0592L14.3308 12.1511C20.0236 12.9636 24.1345 18.3572 25.0582 22.94C25.064 22.9688 25.0633 22.9861 25.0625 22.9937C25.0622 22.9962 25.0618 22.9981 25.0615 22.9995C25.0613 22.9996 25.061 22.9998 25.0607 23C25.0556 23.0027 25.0431 23.0074 25.0229 23.0053C25.0054 23.0035 24.9696 22.9953 24.9213 22.9557C24.5944 22.6877 24.2686 22.4141 23.9411 22.1392C21.3379 19.9538 18.6346 17.6845 14.4842 17.421L13.6867 17.3703V18.1695V21.3504C13.6867 21.5778 13.4077 21.6871 13.2533 21.5202L7.19076 14.9713C7.10086 14.8742 7.10222 14.7238 7.19387 14.6284L13.2564 8.31268C13.4123 8.15022 13.6867 8.26061 13.6867 8.48581V11.4087Z" fill="#186EEF" stroke="#186EEF" stroke-width="1.5" stroke-linecap="round"/>
</svg>
